<svg width="21" height="22" viewBox="0 0 21 22" fill="none" xmlns="http://www.w3.org/2000/svg">
<g clip-path="url(#clip0_1_41)">
<path d="M20.9864 18.024C20.9196 17.5242 20.6283 17.0932 20.1872 16.8417L15.0064 13.8872C14.3719 13.5254 13.5669 13.6307 13.049 14.1436L12.0286 15.1544C11.757 15.4234 11.3274 15.4472 11.0295 15.2097C10.225 14.5685 9.43292 13.8629 8.67525 13.1124C7.91759 12.362 7.20519 11.5775 6.55783 10.7806C6.31804 10.4855 6.34203 10.06 6.61366 9.791L7.63407 8.78027C8.15194 8.26737 8.25844 7.47016 7.89301 6.84155L4.91011 1.71011C4.65612 1.27318 4.22107 0.984686 3.71644 0.918558C3.21177 0.852296 2.7159 1.01901 2.35596 1.37552L0.818363 2.89852C-0.254794 3.9615 -0.272029 5.90588 0.769833 8.37357C1.77165 10.7463 3.6412 13.3584 6.03402 15.7285C8.42693 18.0986 11.0641 19.9503 13.4597 20.9426C14.6861 21.4505 15.7843 21.7044 16.7116 21.7043C17.668 21.7043 18.4425 21.4342 18.9874 20.8945L20.525 19.3715C20.8849 19.015 21.0531 18.5238 20.9864 18.024ZM14.667 14.4712L19.8478 17.4257C20.104 17.5718 20.2732 17.8221 20.3119 18.1124C20.3445 18.356 20.2806 18.5959 20.1357 18.7892L13.2505 14.8971L13.5301 14.6201C13.8309 14.3223 14.2985 14.261 14.667 14.4712ZM3.62718 1.58662C3.92032 1.62503 4.17299 1.79259 4.32049 2.04636L7.30339 7.1778C7.51565 7.54289 7.45378 8.00596 7.15303 8.30381L6.89618 8.55821L2.94508 1.76114C3.10659 1.64268 3.29976 1.57835 3.50114 1.57835C3.54291 1.57835 3.58505 1.58109 3.62718 1.58662ZM18.5063 20.418C17.6537 21.2624 15.91 21.2271 13.7222 20.3209C11.4063 19.3616 8.84688 17.5615 6.51515 15.252C4.18342 12.9425 2.36594 10.4074 1.39751 8.1136C0.482551 5.94662 0.446856 4.21949 1.29945 3.37498L2.44091 2.24434L6.39795 9.05169L6.13258 9.31454C5.61484 9.82739 5.56976 10.6392 6.02776 11.2031C6.69036 12.0188 7.41927 12.8215 8.19412 13.5889C8.96907 14.3564 9.77948 15.0784 10.6029 15.7347C11.1721 16.1883 11.9918 16.1437 12.5097 15.6308L12.7518 15.391L19.6465 19.2886L18.5063 20.418Z" fill="white"/>
</g>
<defs>
<clipPath id="clip0_1_41">
<rect width="21" height="20.8" fill="white" transform="translate(0 0.904755)"/>
</clipPath>
</defs>
</svg>
