<svg width="21" height="22" viewBox="0 0 21 22" fill="none" xmlns="http://www.w3.org/2000/svg">
<g clip-path="url(#clip0_1_25)">
<g filter="url(#filter0_d_1_25)">
<path d="M10.5683 5.46307C9.08837 5.46307 7.88376 6.65621 7.88376 8.12209C7.88376 9.58797 9.08837 10.7811 10.5683 10.7811C12.0483 10.7811 13.2529 9.58797 13.2529 8.12209C13.2529 6.65621 12.0483 5.46307 10.5683 5.46307ZM10.5683 10.0214C9.511 10.0214 8.65078 9.16937 8.65078 8.12209C8.65078 7.07482 9.511 6.22279 10.5683 6.22279C11.6257 6.22279 12.4859 7.07482 12.4859 8.12209C12.4859 9.16937 11.6257 10.0214 10.5683 10.0214Z" fill="white"/>
<path d="M15.7012 3.03843C14.3121 1.66258 12.4651 0.904755 10.5007 0.904755C8.53599 0.904755 6.68938 1.66258 5.3003 3.03843C2.72961 5.58425 2.41015 10.3743 4.60844 13.2764L10.5007 21.7048L16.3842 13.2882C18.5913 10.3743 18.2718 5.58425 15.7012 3.03843ZM15.7621 12.8441L10.5007 20.3699L5.23088 12.8324C3.237 10.1992 3.52272 5.87332 5.84297 3.57555C7.08708 2.34328 8.74117 1.66447 10.5007 1.66447C12.2603 1.66447 13.9144 2.34328 15.1589 3.57555C17.4791 5.87332 17.7648 10.1992 15.7621 12.8441Z" fill="white"/>
</g>
</g>
<defs>
<filter id="filter0_d_1_25" x="-0.854065" y="0.904755" width="22.7081" height="28.8" filterUnits="userSpaceOnUse" color-interpolation-filters="sRGB">
<feFlood flood-opacity="0" result="BackgroundImageFix"/>
<feColorMatrix in="SourceAlpha" type="matrix" values="0 0 0 0 0 0 0 0 0 0 0 0 0 0 0 0 0 0 127 0" result="hardAlpha"/>
<feOffset dy="4"/>
<feGaussianBlur stdDeviation="2"/>
<feComposite in2="hardAlpha" operator="out"/>
<feColorMatrix type="matrix" values="0 0 0 0 0 0 0 0 0 0 0 0 0 0 0 0 0 0 0.25 0"/>
<feBlend mode="normal" in2="BackgroundImageFix" result="effect1_dropShadow_1_25"/>
<feBlend mode="normal" in="SourceGraphic" in2="effect1_dropShadow_1_25" result="shape"/>
</filter>
<clipPath id="clip0_1_25">
<rect width="21" height="20.8" fill="white" transform="translate(0 0.904755)"/>
</clipPath>
</defs>
</svg>
